<svg viewBox="0 0 11 25" fill="none" xmlns="http://www.w3.org/2000/svg">
<path d="M0.207879 11.0175C0.570738 11.3969 0.884115 11.3639 1.19749 10.9186C1.34594 10.7207 2.00568 8.85689 2.68192 6.77869C3.37465 4.68401 4.03439 2.82024 4.18283 2.60582C4.43023 2.20997 4.44673 2.20997 4.89206 2.50686C5.15595 2.67179 6.19505 3.82634 7.21765 5.07986C8.32272 6.43233 9.21337 7.37246 9.44428 7.43844C10.1535 7.61987 10.4339 7.45493 10.4834 6.84467C10.5164 6.36635 10.3514 5.97051 9.60922 4.78297C8.3722 2.82024 7.00323 1.17088 6.07959 0.527629C5.43634 0.0823023 5.17245 -0.000165707 4.38075 -0.000165672C3.53958 -0.000165636 3.39114 0.0493148 2.86334 0.560616C1.98918 1.40179 1.6923 2.19348 0.867622 5.92103C-0.105499 10.3413 -0.15498 10.6712 0.207879 11.0175Z" fill="currentColor"/>
<path d="M4.03413 7.75204C4.16608 10.8528 4.47946 14.4649 4.84232 16.6421C5.83193 22.7447 6.21129 24.2951 6.75557 24.6415C6.937 24.7569 7.11843 24.8229 7.15142 24.7734C7.29986 24.625 7.49779 23.0911 7.44831 22.5303C7.39882 22.2004 7.08545 19.0831 6.72259 15.5865C5.94739 8.18088 5.79895 7.14178 5.37011 6.30061C5.1392 5.82229 4.97427 5.69035 4.71037 5.72333C4.23206 5.78931 3.98465 6.53152 4.03413 7.75204Z" fill="currentColor"/>
</svg>
