<svg viewBox="0 0 52 43" fill="none" xmlns="http://www.w3.org/2000/svg">
<path d="M16.4316 42.9669C15.0658 43.0656 13.7266 42.8773 12.4051 42.5006C12.006 42.384 11.5892 42.375 11.1901 42.2674C10.3919 42.0522 9.59367 41.8459 8.82208 41.55C7.72234 41.1285 6.74678 40.4469 5.69138 39.9178C4.68033 39.4067 3.76683 38.5457 3.11941 37.5144C2.95977 37.2723 2.8001 36.9853 2.78236 36.7073C2.72028 35.7029 2.21476 34.9586 1.68263 34.1425C0.857824 32.8959 0.46762 31.4342 0.378931 29.9096C0.325718 29.0756 0.299076 28.2416 0.166043 27.4165C-0.135499 25.4346 -0.0645478 23.4975 0.698176 21.6053C0.804602 21.3363 0.928784 20.9955 0.848964 20.7444C0.511947 19.6592 1.13277 18.7624 1.42544 17.8298C1.88662 16.359 2.52518 14.9421 3.11053 13.5072C3.33225 12.9602 3.54512 12.3593 3.92648 11.9468C4.61826 11.2025 5.12377 10.3326 5.73573 9.53442C6.9685 7.92916 8.38749 6.50325 9.92181 5.18497C10.312 4.85315 10.8531 4.67381 11.3497 4.50342C12.0858 4.25231 12.751 3.92049 13.3718 3.43622C15.1634 2.01928 17.3007 1.28392 19.3495 0.378158C19.855 0.15396 20.5024 0.252612 21.0878 0.225708C21.7352 0.198804 22.4003 0.297447 23.0212 0.15396C25.1053 -0.321342 26.8614 0.342291 28.4666 1.61574C28.6972 1.7951 28.8924 2.0462 29.1407 2.19866C29.6728 2.5215 30.3468 2.70982 30.8169 2.29729C32.0231 1.2301 33.3623 1.53502 34.6926 1.76819C35.7924 1.96549 36.8832 2.25246 37.9652 2.5484C38.4175 2.66498 38.861 2.86227 39.2778 3.0775C40.1647 3.54383 41.0161 4.10882 41.9207 4.52135C43.0914 5.05942 43.9872 5.89343 44.8031 6.84404C45.2288 7.33727 45.6102 7.88433 46.0802 8.33272C47.3396 9.55237 47.9959 11.1935 49.0247 12.5656C49.3617 13.023 49.4859 13.6597 49.681 14.2157C50.293 15.9555 51.2597 17.5697 51.5878 19.4081C51.7829 20.5202 51.9337 21.6501 51.9958 22.7801C52.0579 23.9639 51.4193 24.9414 50.8694 25.9278C50.6389 26.3404 50.3018 26.6991 50.089 27.1206C49.6278 28.0532 48.9272 28.7438 48.1201 29.3895C47.1534 30.1697 46.2665 31.0485 45.3441 31.8915C43.7123 33.3712 41.9917 34.6895 39.9253 35.5146C39.4995 35.685 39.1182 36.0078 38.7723 36.3217C38.32 36.7342 37.8233 37.084 37.2202 37.1198C36.2979 37.1736 35.5263 37.6131 34.7103 37.9449C33.4509 38.4561 32.2093 39.0121 30.9411 39.4963C30.1074 39.8102 29.3269 40.2048 28.5287 40.5904C27.5266 41.0657 26.4091 41.3168 25.3182 41.55C23.0123 42.0522 20.6975 42.5096 18.3739 42.9221C17.7442 43.0656 17.079 42.9669 16.4316 42.9669ZM26.7638 5.24776C26.9856 4.88904 27.1275 4.65586 27.2782 4.42269C27.766 3.63351 27.6773 3.18512 26.7727 2.9968C25.4512 2.72776 24.0943 2.54839 22.7462 2.47665C21.9391 2.43181 21.07 2.5215 20.3073 2.7995C18.5335 3.43623 16.7952 4.19849 15.0658 4.96077C14.5336 5.19393 14.0193 5.53473 13.5847 5.93829C11.3497 8.02782 8.57376 9.57029 7.05718 12.4042C6.95075 12.6015 6.72016 12.736 6.56939 12.9154C5.1415 14.5655 4.1393 16.4935 3.66925 18.592C3.11051 21.0762 2.59612 23.5872 2.73802 26.1969C2.86218 28.6631 3.11051 31.0127 4.24573 33.2816C5.77117 36.3217 7.95294 38.4381 11.1812 39.4784C12.7865 39.9986 14.4272 40.1241 16.068 40.1779C18.2675 40.2497 20.4315 40.0165 22.4979 39.1466C23.0921 38.8955 23.7129 38.6623 24.3426 38.5278C27.8813 37.7476 31.1894 36.3486 34.4177 34.7254C36.2624 33.8017 38.0717 32.8601 39.8366 31.7749C41.2645 30.8961 42.5504 29.9096 43.7743 28.7796C44.2089 28.3761 44.6435 27.9636 45.1047 27.6048C45.8585 27.013 46.4882 26.3135 46.9849 25.4884C47.1711 25.1835 47.3574 24.8517 47.6234 24.6454C48.2088 24.188 48.2975 23.5782 48.3684 22.9056C48.5369 21.2735 48.3152 19.713 47.9161 18.1257C47.1357 15.0497 45.6013 12.3773 43.6768 9.96489C42.7278 8.78112 41.3709 7.92021 39.9607 7.26555C38.994 6.81715 37.983 6.48533 36.9985 6.07281C35.4908 5.43608 33.8767 5.49885 32.298 5.3733C31.7748 5.32846 31.4023 5.61543 31.2781 6.17144C31.2426 6.33286 31.1362 6.47637 31.0297 6.68263C30.6927 6.37772 30.4887 6.25216 30.3646 6.06383C29.9123 5.36433 29.3003 5.17602 28.5287 5.38228C28.2449 5.46299 27.9522 5.5706 27.6684 5.55266C27.4112 5.53472 27.1541 5.38228 26.7638 5.24776Z" fill="currentColor"/>
<path d="M17.6378 27.1476C18.0014 27.1924 18.2498 27.1566 18.436 27.2462C18.8085 27.4166 19.1278 27.7126 19.5092 27.8561C20.1654 28.1072 20.875 28.5107 21.5224 28.43C23.4292 28.2058 25.407 28.0534 26.9324 26.6095C27.9435 25.6589 29.2294 25.1657 30.4179 24.52C30.8968 24.2599 31.3757 24.3675 31.5442 24.6635C31.7837 25.076 31.7039 25.4975 31.4467 25.8383C31.021 26.4122 30.5598 26.9503 30.072 27.4794C28.378 29.3089 26.3027 30.5285 23.9347 31.237C22.8438 31.5598 21.7086 31.6675 20.6089 31.3625C18.8795 30.8783 17.8418 29.4255 17.6378 27.1476Z" fill="currentColor"/>
<path d="M20.7951 14.2247C20.8217 13.6238 20.8572 12.9961 21.2652 12.4221C22.2851 10.9783 22.5423 10.9065 24.1919 11.5433C25.2207 11.9468 26.0278 12.4849 26.4535 13.5969C27.0299 15.0856 26.01 17.0047 24.4047 17.202C24.0589 17.2469 23.6952 17.2289 23.3494 17.1662C20.9991 16.7985 20.8306 16.0362 20.7951 14.2247Z" fill="currentColor"/>
<path d="M31.2072 15.2651C29.9212 15.274 29.4157 14.6014 29.7704 13.5253C29.9035 13.1307 30.1163 12.772 30.3026 12.3953C30.8347 11.3102 31.1185 11.2026 32.2182 11.6868C32.8923 11.9918 33.4776 12.3684 33.4865 13.2294C33.4953 13.7943 33.318 14.2696 32.8568 14.6373C32.3158 15.0588 31.7304 15.292 31.2072 15.2651Z" fill="currentColor"/>
</svg>
