<svg viewBox="0 0 41 76" fill="none" xmlns="http://www.w3.org/2000/svg">
<path d="M13.8682 0.966339C10.597 2.74078 5.39293 7.65852 3.41041 10.7511C-1.645 18.7108 -1.05025 27.076 4.99642 34.1231L7.07807 36.5059L6.28506 40.4097C5.09555 46.4935 4.8973 49.0284 5.44249 53.7434C6.03725 59.0667 7.32588 63.0212 10.0023 67.5841C12.0839 71.2343 16.2472 76 17.2385 76C18.8245 76 18.2297 74.0735 14.8594 68.091C12.9265 64.5929 11.39 61.6016 11.5387 61.5003C11.6874 61.3482 12.6291 61.4496 13.7195 61.7537C19.667 63.4775 24.2764 61.1454 25.119 56.1262C25.6642 52.6787 22.8886 49.6368 19.221 49.6368C16.9411 49.6368 12.8274 51.7155 11.2413 53.6927C10.4979 54.6053 9.7049 55.1629 9.50665 54.9602C9.01102 54.5039 9.06058 42.7418 9.55621 40.4097L9.95271 38.5339L13.0256 39.7506C19.1714 42.0828 24.6233 41.88 30.4718 39.0409C37.7575 35.492 42.8129 26.3155 40.3843 21.0429C39.4922 19.1164 37.5097 17.6968 35.6759 17.6968C34.7837 17.6968 34.6846 17.3926 34.6846 14.7563C34.6846 11.5623 33.5447 9.07809 31.6117 8.01341C30.9674 7.65852 29.0344 7.25294 27.2502 7.10085L24.0286 6.79665L23.7312 4.92081C23.3843 2.63938 22.5417 1.52402 20.46 0.61145C18.2793 -0.301125 15.9498 -0.19973 13.8682 0.966339ZM18.9236 4.56593C19.8157 5.07291 19.8653 5.4278 19.6175 7.75993C19.0227 12.2721 20.3114 13.6409 23.8799 12.3735C26.6554 11.4102 28.9849 11.4102 29.9266 12.4242C30.9178 13.4381 30.9178 13.5395 29.6787 17.2912C29.1336 18.9643 28.7371 20.8401 28.8362 21.4485C28.9849 22.4118 29.2822 22.5132 32.7021 22.5132H36.4193L36.568 24.1355C36.9149 27.6844 32.6525 33.3626 27.9936 35.5427C24.3755 37.2664 17.1889 37.165 13.6204 35.4413C10.2997 33.7682 6.632 29.9658 5.09555 26.5183C4.05473 24.1355 3.85648 23.1722 4.05473 20.5359C4.45123 15.4154 7.42501 10.2441 12.2822 6.23897C15.0577 3.90685 16.8915 3.45056 18.9236 4.56593ZM21.2035 53.7941C22.1452 54.7574 21.8974 56.1769 20.5096 57.5965C19.3201 58.7625 18.9732 58.8639 16.3959 58.6104C11.1918 58.0528 10.8448 57.1909 14.7603 54.656C17.1889 53.0843 20.1627 52.7294 21.2035 53.7941Z" fill="currentColor"/>
</svg>
