<svg width="100%" height="100%" viewBox="0 0 182 124" fill="none" xmlns="http://www.w3.org/2000/svg">
<g id="Group 15">
<path id="Vector" d="M12.3848 1.65053C8.74364 7.59177 7 14.0964 7 22.24C7 29.5641 7.82054 33.1494 10.8975 39.3979C12.6412 42.9831 13.872 44.6221 18.0772 48.8219C22.8979 53.6364 23.2056 54.0461 23.7184 56.7607C25.6159 67.3115 36.7957 78.6818 52.3346 85.9547C66.3862 92.5106 89.2074 97.8372 104.028 97.9908C109.105 98.0421 110.387 97.8884 110.798 97.2738C111.516 96.0958 110.644 95.8909 102.849 95.2251C84.5919 93.791 66.3862 89.2839 53.0525 82.9329C42.7959 78.1184 34.3341 71.3065 29.8724 64.3409C28.1288 61.5239 25.9749 56.3509 26.3851 55.89C26.539 55.7363 28.3339 56.1461 30.3853 56.7607C34.7956 58.0411 37.3598 58.0923 40.8471 57.068C44.4882 55.9924 46.7447 53.534 47.1037 50.2048C47.4114 46.8245 47.0011 45.4416 45.1036 43.2904C42.9497 40.832 39.8727 39.7564 35.8213 40.0125C30.4365 40.371 26.6416 42.9319 24.7954 47.3879C24.2825 48.6171 23.5646 49.6414 23.1543 49.6414C22.1286 49.6414 16.6926 43.8026 14.6925 40.4735C8.79492 30.8446 8.17952 17.2207 13.0514 5.28698C14.0771 2.82853 14.7438 0.626175 14.59 0.421303C14.0771 -0.398178 13.4617 -0.0396576 12.3848 1.65053ZM39.6163 42.9831C42.0266 43.7002 44.6421 46.6196 44.6421 48.6683C44.6421 52.6633 41.4625 55.0193 35.9239 54.9681C31.3084 54.9681 26.6928 52.9194 26.6928 50.8706C26.6928 48.3098 29.1032 45.0831 31.975 43.7002C34.8982 42.3685 36.6931 42.2149 39.6163 42.9831Z" fill="#EA4335"/>
<path id="Vector_2" d="M0.667356 19.9026C-1.00663 24.3277 0.715184 35 3.10659 35C4.25446 35 4.25446 34.3232 3.34573 24.6921C2.67614 17.5598 2.00654 16.4145 0.667356 19.9026Z" fill="#EA4335"/>
<path id="Vector_3" d="M48 70.8302C48 72.1172 52.2138 76.1265 56.2246 78.7004C61.5554 82.0663 66.6323 83.6997 75.3138 84.7392C79.2738 85.2342 81 85.0362 81 84.0462C81 83.2542 79.3246 82.6108 73.8923 81.3238C64.2462 78.9974 57.5954 76.2255 52.2138 72.1172C49.1169 69.7413 48 69.4443 48 70.8302Z" fill="#EA4335"/>
<path id="Vector_4" d="M144.009 76.6203C143.398 77.3861 142.38 80.6027 140.853 86.5251L139.733 90.7117L131.537 93.8771C122.12 97.5021 121 98.1148 121 99.4933C121 101.127 123.138 102.046 130.112 103.322C133.777 103.986 136.984 104.65 137.29 104.854C137.951 105.263 137.951 109.5 137.239 116.699C136.577 123.438 136.781 124 139.988 124C141.107 124 148.947 122.06 157.346 119.66C165.796 117.312 174.246 115.014 176.232 114.555C180.457 113.585 182.188 112.564 181.984 111.236C181.882 110.674 179.693 108.377 177.046 106.028C174.399 103.68 168.8 98.1148 164.625 93.6219C151.848 79.9389 150.779 78.8668 149.049 77.3861C147.318 75.9055 144.925 75.5481 144.009 76.6203ZM153.426 86.0656C156.735 89.6395 161.622 94.8472 164.269 97.6042C166.916 100.361 169.156 102.863 169.258 103.118C169.461 103.578 166.916 102.454 151.645 95.3067C144.925 92.1412 142.889 90.967 143.042 90.3543C145.027 83.2576 146.3 79.5815 146.809 79.5815C147.114 79.5815 150.067 82.4917 153.426 86.0656ZM158.11 101.382C171.192 107.969 173.228 109.194 170.276 108.836C160.4 107.611 144.416 104.292 139.326 102.403C137.493 101.74 134.439 100.872 132.454 100.514C130.519 100.106 128.687 99.6464 128.432 99.4422C128.178 99.238 129.908 98.1658 132.25 97.1447C134.541 96.0725 137.391 94.694 138.511 94.0814L140.547 93.0092L143.093 94.0303C144.518 94.643 151.288 97.9105 158.11 101.382ZM145.892 107.152C149.507 108.071 168.596 111.747 170.021 111.747C171.345 111.798 168.851 112.717 163.251 114.299C160.044 115.167 153.681 117.159 149.099 118.69C144.569 120.222 140.598 121.447 140.293 121.447C139.733 121.447 139.784 119.66 140.649 109.551C140.802 107.662 141.158 106.131 141.464 106.131C141.718 106.131 143.754 106.59 145.892 107.152Z" fill="#EA4335"/>
</g>
</svg>
