<svg viewBox="0 0 101 101" fill="none" xmlns="http://www.w3.org/2000/svg">
<path d="M59.3502 32.928C52.4332 39.5956 45.8303 47.2146 38.6731 53.873C36.3597 56.0293 32.7812 59.8019 30.491 62.7479C29.3967 64.1563 23.3431 69.8496 21.907 70.7869C20.5263 71.6873 22.05 69.7756 23.075 68.381L23.1258 68.3487L23.0427 68.4318C25.499 64.5344 28.8835 60.1431 35.5004 53.5631C39.1574 49.9246 42.5004 45.9072 46.4207 42.0793C49.2836 39.2811 52.1972 36.192 55.0323 33.6155C55.2771 33.3892 55.6373 33.0937 55.7435 32.969C58.7401 29.335 62.4665 25.8211 65.8326 22.2517C67.0886 20.9219 68.326 19.5366 69.5774 18.276C70.5424 17.311 71.392 16.4152 72.2186 15.5148C72.6249 15.0622 73.0312 14.6097 73.4422 14.1526C73.6453 13.9217 73.8485 13.6908 74.0563 13.4461C74.1579 13.326 74.2595 13.206 74.3703 13.0859L74.5273 12.9012L74.6058 12.8227L74.6011 12.7996L74.6058 12.795L74.6473 12.7257L74.7397 12.578L74.9336 12.2824C75.0675 12.0931 75.2014 11.9038 75.3353 11.7145C75.6123 11.3358 75.8986 10.9664 76.1941 10.6062C76.7944 9.88588 77.4408 9.19325 78.1242 8.57451C79.4956 7.33242 81.0333 6.34897 82.5018 5.88735C82.9959 5.72579 84.0904 5.22256 85.4942 4.89025C86.8935 4.56255 88.6299 4.54431 89.9831 4.93704C90.9344 5.17731 91.7935 5.63 92.5832 6.14272C93.3361 6.69238 94.0335 7.29745 94.6062 7.99025L95.0404 8.50754C95.1743 8.68767 95.2991 8.88626 95.4284 9.071C95.6963 9.44049 95.8903 9.86538 96.0982 10.2764C96.4585 11.1354 96.7219 12.0545 96.7312 12.9966C96.7359 13.2968 96.7406 13.8925 96.736 14.1834C96.7362 15.5781 96.3208 16.9635 95.6698 18.141C95.0142 19.3324 94.1692 20.3714 93.2503 21.2903C92.3176 22.2045 91.3202 23.0172 90.2858 23.7375C89.7686 24.1069 89.2376 24.4439 88.7065 24.7717L87.8984 25.2473L87.4875 25.4735L87.2797 25.5889L87.1873 25.6351C86.841 25.9629 86.4993 26.2862 86.1576 26.6094C85.7882 26.9696 85.4234 27.3251 85.0586 27.6714C84.3383 28.3825 83.641 29.089 82.9761 29.7908C77.8554 35.2349 73.1685 39.3675 68.043 44.0311C65.0601 46.7462 62.0495 50.0431 58.8634 53.0999C57.6998 54.2173 56.5316 55.4964 55.211 56.6877C54.7446 57.1079 54.1397 57.6296 53.8211 57.9852C50.9814 61.1205 47.9662 64.2281 44.466 67.3402L44.3968 67.4095L44.4799 67.3356C42.1666 70.1016 39.4884 72.4657 36.764 74.7744L36.8056 74.7328C36.5054 74.9221 36.7409 74.465 35.7297 75.4762C34.8939 76.312 34.0443 77.1246 33.1993 77.9327C32.3173 78.7592 31.4354 79.5857 30.558 80.4076C29.6391 80.9017 28.7201 81.3957 27.8012 81.8897C26.9238 82.3699 26.0418 82.8454 25.1552 83.3348C24.5318 83.6811 23.756 84.1243 23.3266 84.4244C21.7519 85.5279 20.1219 86.5576 18.4318 87.5179C17.5821 87.9981 16.7232 88.4598 15.8412 88.9076C15.1116 89.2862 14.382 89.6648 13.6477 90.048C12.9458 90.3989 12.2439 90.7498 11.5374 91.1053C11.3342 91.2068 10.9186 91.4192 10.8447 91.4654C9.72724 92.2134 8.46199 92.9983 7.12284 93.7924C8.22165 91.5759 9.74987 88.7544 11.1904 86.0761C11.472 85.545 11.7629 85.014 12.0445 84.4829C12.243 84.1089 12.4416 83.7256 12.6355 83.3562C13.0233 82.6081 13.3788 81.8739 13.6973 81.1581C15.3363 77.45 20.3597 69.7846 20.6693 70.445C20.7293 70.5697 20.3092 71.5718 20.1107 72.1675L20.1338 72.1167C19.2105 74.4995 18.1579 77.0024 16.9483 79.6807C16.3435 81.0245 15.6972 82.4099 15.0139 83.8507C14.6676 84.5664 14.3167 85.3053 13.9566 86.0534L13.892 86.1826L13.8735 86.2288L13.8412 86.3166L13.7812 86.4782L13.6796 86.7645C13.6011 86.9816 13.5227 87.1617 13.4165 87.3695C13.652 87.2356 13.8505 87.1386 14.0861 87.0324C14.2107 86.9724 14.3354 86.9216 14.4601 86.8616L14.5617 86.8154L14.9126 86.6308C15.1574 86.4969 15.4068 86.3676 15.6469 86.2383C17.6002 85.1903 19.4843 84.1653 21.2759 83.0757C22.6059 82.2815 23.9496 81.4735 25.2795 80.6794C26.5679 79.9268 27.8563 79.1835 29.103 78.454C30.2113 77.3735 31.2733 76.3484 32.3076 75.3418C36.4403 71.3754 40.1758 67.2427 44.738 63.3086C47.213 61.1754 50.2282 58.0493 52.9941 55.3666C58.5259 50.0011 63.8314 44.5201 69.6772 39.3024C71.9952 37.2338 74.8442 34.5418 76.9175 32.1083L76.8805 32.1453C78.4505 30.7878 79.8588 29.3794 81.2533 27.9572C81.9459 27.2461 82.6386 26.535 83.3358 25.8101C83.6913 25.4545 84.0423 25.0944 84.3932 24.7342C84.8042 24.3232 85.2244 23.9123 85.6446 23.5013C86.0925 23.2659 86.1617 23.2243 86.3418 23.1181L86.8452 22.8272C88.3967 21.9131 89.8836 20.8234 91.1534 19.5813C92.4186 18.3438 93.476 16.9262 93.9468 15.4484C94.4223 13.9753 94.2743 12.4883 93.4844 11.0981C93.1057 10.4053 92.6022 9.71716 92.0248 9.1121C91.466 8.48858 90.8425 7.97588 90.1728 7.57401C89.9973 7.47239 89.794 7.34306 89.5678 7.27375C89.4569 7.22756 89.3415 7.18598 89.2214 7.13978C89.1013 7.10282 88.9766 7.07971 88.8565 7.05199C88.3716 6.92723 87.8729 6.92716 87.508 6.96868C85.3144 7.21314 83.2411 8.37201 81.237 9.83106C80.392 10.4636 79.5885 11.184 78.8405 11.9597C78.4665 12.3522 78.1017 12.7539 77.76 13.1787C77.5892 13.3865 77.4183 13.6036 77.2567 13.8206L77.0166 14.1438L76.735 14.5456C76.4025 14.9057 76.0747 15.2613 75.7468 15.6261C75.4421 15.9678 75.1419 16.3141 74.8372 16.6558C73.2396 18.5028 71.6512 20.3221 69.7857 21.8643C69.4855 22.1091 68.8067 22.7509 68.6821 22.9218C66.1426 26.2742 62.2915 29.6264 59.3317 32.9557L59.3641 32.9233L59.3502 32.928Z" fill="currentColor"/>
<path d="M19.2395 83.0435C19.1195 83.4037 19.6043 83.122 19.3642 83.6115C19.2858 83.7732 19.3781 83.7916 19.6967 83.5469C19.8445 83.4269 19.6737 83.8101 19.429 84.1103C19.1981 84.3966 19.0088 84.5305 18.8333 84.6875L18.8425 84.6782L18.8379 84.6829C18.1453 85.3108 17.6604 85.7033 17.6789 85.4539C17.6927 85.32 17.3649 85.537 17.4064 85.3662C17.4341 85.2368 17.3556 85.223 17.4756 85.0013C17.4895 84.9875 17.5172 84.9413 17.5033 84.9459C17.1939 85.1629 17.3001 84.9274 17.2031 84.9135C17.1708 84.9089 17.0923 84.9412 17.0923 84.9043C17.0877 84.8443 17.0184 84.8673 16.8753 84.9551C16.6859 85.0705 16.6167 85.0566 16.9907 84.5903C17.1199 84.4333 17.1199 84.3501 16.9814 84.4332C16.7967 84.5533 16.6905 84.5856 16.889 84.2947C16.9075 84.2762 16.9167 84.2485 16.9029 84.2531C16.5473 84.4701 16.9121 83.9021 16.6211 84.0545C16.2887 84.2299 16.4041 83.9575 16.4595 83.7358C16.4872 83.6065 16.247 83.7635 16.2008 83.6988C16.1824 83.6804 16.09 83.7358 16.1085 83.6711C16.1131 83.648 16.1362 83.6065 16.1085 83.6249C15.8637 83.7865 15.716 83.8419 15.7898 83.648L15.7806 83.6572C15.4758 83.8973 15.5451 83.7449 15.6605 83.5371C15.7067 83.4817 15.8267 83.3709 15.7944 83.3663C15.6928 83.3663 15.7759 83.1816 15.7343 83.1215C15.7251 83.1123 15.7159 83.103 15.6697 83.14C15.3557 83.3801 15.3095 83.3431 15.4896 83.0522C15.4988 83.043 15.508 83.0245 15.5034 83.0291C15.1109 83.3662 15.3556 82.9922 15.1109 83.1538C14.8569 83.3246 15.3094 82.6319 15.7157 82.2071C15.7942 82.1286 15.8773 82.064 15.9558 81.9947C16.4407 81.6022 16.7547 81.3991 16.9856 81.316C17.1888 81.2421 16.9718 81.6069 17.1565 81.5331C17.3227 81.4684 17.4243 81.4777 17.4705 81.5331C17.526 81.607 17.8492 81.3946 17.6922 81.7086C17.6091 81.8749 17.7615 81.8149 17.8169 81.8518C17.9185 81.9257 18.191 81.8195 18.0756 82.1289C18.0294 82.249 18.0479 82.3229 18.2973 82.1382C18.1818 82.3737 18.5374 82.092 18.5374 82.2029C18.5421 82.383 18.7452 82.3553 18.5883 82.697C18.5698 82.7432 18.5975 82.7432 18.6575 82.7017C18.8376 82.577 18.8238 82.6555 18.7592 82.7848C18.6807 82.9464 18.6853 83.0157 18.8469 82.9187C18.967 82.8449 19.0824 82.7848 18.9208 83.0111C18.8931 83.0481 18.8793 83.0896 18.8977 83.0711C19.2902 82.7525 19.0455 83.1358 19.2256 83.0481L19.2302 83.0435L19.2395 83.0435Z" fill="currentColor"/>
<path d="M29.9892 75.48C30.114 76.0942 30.8852 76.1082 30.8715 76.8517C30.8669 77.0965 31.0932 77.2581 31.5227 77.1427C31.7259 77.0874 31.7398 77.6923 31.5228 78.011C31.315 78.3203 31.0518 78.3803 30.8163 78.468L30.8301 78.4542L30.8255 78.4588C29.9712 78.9159 29.334 79.119 29.1399 78.6387C29.0337 78.3662 28.5673 78.4447 28.4841 78.1306C28.4194 77.8997 28.2393 77.775 28.2669 77.4609C28.2669 77.4332 28.2946 77.3778 28.2716 77.3824C27.8421 77.4701 27.8189 77.1145 27.5973 76.976C27.5141 76.9205 27.394 76.9113 27.3479 76.8281C27.2739 76.6988 27.1446 76.6711 26.9368 76.6942C26.6551 76.7264 26.4981 76.6156 26.7982 76.0845C26.9044 75.9045 26.8074 75.7336 26.6088 75.7659C26.3317 75.8028 26.1424 75.7612 26.2578 75.3871C26.267 75.3594 26.2624 75.3179 26.2439 75.3179C25.7082 75.3732 25.8651 74.6251 25.4033 74.6343C24.8769 74.6434 24.8121 74.2278 24.6643 73.8398C24.5765 73.6135 24.221 73.6828 24.0454 73.5257C23.9854 73.4657 23.8422 73.498 23.8099 73.3918C23.8007 73.3548 23.796 73.2948 23.7499 73.304C23.3989 73.3871 23.1356 73.3547 23.0663 73.0545L23.071 73.0592C22.6877 73.2485 22.6415 73.0083 22.6368 72.7081C22.6691 72.6389 22.7846 72.5234 22.7153 72.5003C22.489 72.4125 22.4289 72.1308 22.2626 71.9738C22.2349 71.9461 22.1887 71.9276 22.1379 71.9507C21.7454 72.14 21.5792 72.0291 21.616 71.632C21.6207 71.6181 21.616 71.595 21.6068 71.595C21.1589 71.9044 21.2142 71.3964 20.8771 71.5118C20.8032 71.5395 20.7524 71.5164 20.7155 71.461L22.0544 68.9212C22.2392 69.0875 22.3131 69.7525 22.1331 70.1819C22.0915 70.2882 22.0038 70.3574 21.9345 70.4452C21.7129 70.676 21.5005 70.8515 21.2973 70.9808L21.9945 69.6647C22.2438 69.5908 22.4794 69.5678 22.7056 69.5909C23.089 69.6233 23.0706 70.1405 23.4031 70.159C23.7079 70.1775 23.948 70.2884 24.1328 70.4455C24.3683 70.6441 24.8394 70.5425 24.8902 71.009C24.918 71.2583 25.1904 71.2907 25.3613 71.4154C25.6939 71.6648 26.1834 71.7296 26.3128 72.2376C26.3636 72.4362 26.4975 72.6071 26.83 72.487C26.8578 72.838 27.3196 72.6533 27.4535 72.8797C27.6799 73.2538 28.114 73.4201 28.1695 73.965C28.1787 74.0389 28.2526 74.0759 28.3358 74.0574C28.5897 73.9974 28.6544 74.1452 28.6544 74.3484C28.6591 74.5931 28.7515 74.7409 29.0009 74.7317C29.1902 74.7271 29.3703 74.7318 29.2687 75.0181C29.2503 75.0643 29.2595 75.1289 29.2872 75.1197C29.7998 74.9212 29.6891 75.4292 29.9892 75.4708L29.9892 75.48Z" fill="currentColor"/>
<path d="M84.4988 21.2109C84.7391 21.839 85.5472 21.7883 85.6905 22.5595C85.7367 22.8089 86.0138 22.966 86.4294 22.7905C86.6326 22.7074 86.7759 23.3309 86.6189 23.6911C86.4665 24.0374 86.2079 24.1298 85.9863 24.2498L85.9955 24.2406L86.0001 24.2452C85.2059 24.8177 84.5686 25.0947 84.2407 24.6005C84.0605 24.3281 83.5803 24.4388 83.4186 24.1109C83.2985 23.8708 83.0676 23.7507 83.0398 23.4181C83.0398 23.3904 83.049 23.3258 83.0306 23.335C82.5826 23.4504 82.4902 23.0717 82.2223 22.9331C82.1253 22.8823 81.9914 22.8684 81.9221 22.7807C81.8159 22.6467 81.6727 22.6144 81.4464 22.6467C81.1509 22.6836 80.9477 22.5727 81.1877 22.0001C81.2708 21.8062 81.1415 21.6307 80.9291 21.6583C80.6335 21.7045 80.4211 21.6583 80.4857 21.2611C80.4903 21.2288 80.4811 21.1919 80.4626 21.1919C79.8853 21.2518 79.9499 20.4575 79.4557 20.4621C78.8785 20.4666 78.7583 20.014 78.5551 19.5983C78.435 19.3582 78.0563 19.4135 77.8531 19.238C77.7792 19.1734 77.6268 19.1964 77.5852 19.081C77.5713 19.0394 77.5575 18.9794 77.5159 18.984C77.1419 19.0532 76.8509 19.0024 76.7493 18.6791L76.74 18.6883C76.3383 18.8684 76.269 18.6051 76.2412 18.2911C76.2689 18.2172 76.3936 18.111 76.3105 18.0741C76.0565 17.9678 75.9779 17.6584 75.7839 17.4829C75.7516 17.4505 75.7008 17.4274 75.65 17.4505C75.2298 17.6121 75.0404 17.4781 75.0588 17.0625C75.0588 17.044 75.0542 17.0209 75.0496 17.0256C74.5739 17.3072 74.6108 16.7715 74.246 16.8592C73.8719 16.9469 73.9411 15.9632 74.3243 15.5153C74.3982 15.4322 74.5136 15.3907 74.6014 15.3307C75.2202 15.0352 75.7143 14.9567 76.1807 15.0445C76.5825 15.1139 76.5826 15.6403 76.9382 15.6912C77.2615 15.7374 77.5247 15.8621 77.728 16.0377C77.9912 16.264 78.4807 16.1717 78.5593 16.6566C78.6009 16.9198 78.9011 16.9614 79.0904 17.0954C79.4645 17.3679 79.991 17.4419 80.1712 17.973C80.2451 18.1854 80.4022 18.3609 80.7393 18.2363C80.7994 18.6011 81.2704 18.4072 81.4413 18.6335C81.723 19.0169 82.1941 19.1832 82.3327 19.7466C82.3512 19.8205 82.4343 19.8575 82.5221 19.8344C82.7853 19.7652 82.8685 19.913 82.9054 20.1254C82.947 20.3794 83.0717 20.5318 83.335 20.5088C83.5335 20.4949 83.7229 20.4903 83.6675 20.7951C83.6583 20.8413 83.6768 20.9152 83.6999 20.9014C84.2032 20.6659 84.1709 21.197 84.4988 21.2201L84.5034 21.2155L84.4988 21.2109Z" fill="currentColor"/>
<path d="M88.6041 18.1767C88.8767 18.8464 89.7403 18.8511 89.902 19.6686C89.9529 19.9318 90.2531 20.112 90.6918 19.9689C90.9042 19.895 91.0705 20.56 90.9136 20.9202C90.7612 21.2666 90.4888 21.345 90.2533 21.4512L90.2625 21.442L90.2579 21.4466C89.4313 21.9776 88.7617 22.213 88.4107 21.6773C88.2167 21.3817 87.7133 21.4601 87.5285 21.1091C87.3946 20.8551 87.159 20.7119 87.1174 20.3655C87.1128 20.3332 87.1266 20.2732 87.1035 20.2778C86.6325 20.3701 86.5216 19.9729 86.2399 19.8112C86.1337 19.7512 85.9951 19.7327 85.9212 19.6403C85.8057 19.4971 85.6533 19.4556 85.4224 19.474C85.113 19.497 84.8913 19.3677 85.1268 18.7905C85.2053 18.5919 85.0621 18.4025 84.845 18.4256C84.5356 18.4579 84.3093 18.3978 84.3647 17.9914C84.3693 17.9591 84.3554 17.9175 84.337 17.9175C83.732 17.9498 83.7642 17.1324 83.2423 17.1092C82.6374 17.086 82.4895 16.615 82.2493 16.1808C82.1154 15.9268 81.709 15.9637 81.4873 15.779C81.4088 15.7097 81.2517 15.7281 81.1963 15.6081C81.1732 15.5665 81.164 15.5018 81.1178 15.5018C80.7253 15.5618 80.4112 15.4971 80.2865 15.16C79.8663 15.3215 79.7739 15.0537 79.7322 14.7258C79.7599 14.6519 79.88 14.5411 79.7969 14.5041C79.529 14.384 79.4181 14.0607 79.201 13.8714C79.1687 13.839 79.1133 13.8113 79.0533 13.8344C78.6192 13.9914 78.4113 13.8482 78.4067 13.4187C78.4067 13.4002 78.402 13.3771 78.3928 13.3771C77.9033 13.6541 77.9171 13.1046 77.5338 13.183C77.1413 13.2615 77.1504 12.2547 77.5244 11.7976C77.5936 11.7099 77.7137 11.6729 77.8107 11.6129C78.4433 11.3221 78.9652 11.2529 79.4686 11.3499C79.9027 11.4331 79.9397 11.978 80.3184 12.0427C80.6648 12.1028 80.9603 12.2414 81.182 12.4262C81.473 12.671 81.9948 12.5925 82.1057 13.1005C82.1658 13.373 82.4891 13.4285 82.6923 13.5763C83.108 13.8719 83.6668 13.9782 83.8885 14.5324C83.9763 14.7495 84.1564 14.9481 84.512 14.8327C84.5998 15.216 85.0847 15.0359 85.2787 15.2853C85.5974 15.6964 86.1054 15.8997 86.2718 16.4908C86.2949 16.5693 86.3872 16.6155 86.4796 16.5971C86.7567 16.5417 86.849 16.6987 86.8953 16.9204C86.9507 17.1882 87.0847 17.3499 87.3664 17.3453C87.5742 17.3407 87.7774 17.35 87.7266 17.6594C87.722 17.7102 87.7405 17.7841 87.7636 17.7702C88.29 17.5579 88.2716 18.112 88.618 18.1536L88.6041 18.1767Z" fill="currentColor"/>
<path d="M45.8169 51.8832C46.5604 51.9711 47.0175 51.2184 47.835 51.4725C48.0982 51.551 48.4168 51.3802 48.5184 50.9184C48.5645 50.6967 49.2434 50.8677 49.4836 51.1818C49.7145 51.4866 49.6407 51.7637 49.613 52.0223L49.5992 52.0084L49.6084 52.0177C49.6501 53.0013 49.5116 53.7033 48.842 53.754C48.4726 53.7816 48.2741 54.2665 47.863 54.2526C47.5675 54.2433 47.3043 54.3864 46.9764 54.2525C46.9487 54.2432 46.8978 54.2017 46.8932 54.2155C46.7224 54.6727 46.3022 54.5757 46.0112 54.7465C45.9004 54.8111 45.8081 54.922 45.6834 54.945C45.4894 54.9727 45.374 55.0881 45.2586 55.3052C45.1108 55.5915 44.8753 55.7161 44.4873 55.2266C44.358 55.0603 44.1086 55.088 44.0071 55.2912C43.8685 55.5775 43.6931 55.7437 43.3605 55.4943C43.3374 55.4712 43.2913 55.4619 43.282 55.4804C42.9773 56.0253 42.2661 55.5819 41.9613 56.0252C41.6104 56.5423 41.1024 56.4314 40.5852 56.4129C40.2804 56.4036 40.0957 56.773 39.8048 56.87C39.6986 56.9023 39.6247 57.0501 39.4908 57.0362C39.44 57.0316 39.3753 57.0131 39.3568 57.05C39.1814 57.4195 38.9551 57.6549 38.5857 57.5902L38.5811 57.5856L38.5903 57.5949C38.498 58.0382 38.207 57.9781 37.9022 57.8488L37.9069 57.8534C37.856 57.7841 37.8283 57.6178 37.7452 57.6733C37.4866 57.8487 37.1402 57.7702 36.8539 57.8625C36.8031 57.8763 36.7523 57.9086 36.7385 57.9687C36.6323 58.4259 36.383 58.5274 36.0042 58.3057C35.995 58.2965 35.9627 58.2918 35.9673 58.2965C35.9304 58.8599 35.4547 58.5689 35.3024 58.9337C35.1454 59.3123 34.2725 58.7719 34.0923 58.2131C34.06 58.1069 34.0923 57.9822 34.0923 57.8713C34.1938 57.1694 34.4339 56.6891 34.8033 56.3105C35.1265 55.9873 35.6207 56.2413 35.8885 55.9458C36.1332 55.6826 36.4241 55.5026 36.7104 55.4102C37.0845 55.2856 37.3107 54.8007 37.8141 54.9624C38.0866 55.0502 38.3128 54.8055 38.5576 54.6993C39.0471 54.4962 39.4442 54.0621 40.0584 54.1592C40.2985 54.1962 40.5664 54.1408 40.6633 53.776C41.0466 53.9007 41.1574 53.3835 41.4807 53.3466C42.021 53.2774 42.4735 52.9357 43.0831 53.0928C43.1663 53.1113 43.2586 53.0559 43.2909 52.9681C43.3925 52.7003 43.5818 52.6957 43.8035 52.7696C44.0668 52.8574 44.2884 52.8205 44.4315 52.5758C44.5424 52.391 44.6532 52.2156 44.9072 52.4142C44.9441 52.4511 45.0227 52.465 45.0273 52.4327C45.1196 51.86 45.6045 52.151 45.8261 51.874L45.8215 51.8694L45.8169 51.8832Z" fill="currentColor"/>
<path d="M41.3568 57.7294C42.1834 57.7711 42.719 56.9769 43.6288 57.1756C43.9244 57.2403 44.2846 57.0464 44.4046 56.5661C44.4646 56.3398 45.2173 56.4646 45.4806 56.774C45.7347 57.065 45.6423 57.3513 45.6054 57.6192L45.5916 57.6053L45.6054 57.6099C45.624 58.6075 45.4486 59.3371 44.6959 59.434C44.2803 59.4893 44.0448 59.9927 43.583 60.0111C43.2505 60.0203 42.955 60.1865 42.5855 60.0756C42.5532 60.0618 42.5024 60.0294 42.4931 60.0479C42.29 60.5282 41.8282 60.4542 41.4865 60.6481C41.3618 60.7174 41.2556 60.842 41.1124 60.8744C40.8954 60.9159 40.7615 61.0406 40.6276 61.2668C40.4567 61.567 40.1843 61.7101 39.764 61.2344C39.6208 61.0727 39.3437 61.1189 39.2237 61.3313C39.0575 61.6268 38.8589 61.8161 38.494 61.5806C38.4663 61.5621 38.4202 61.5529 38.4063 61.5759C38.0508 62.1532 37.2656 61.7467 36.9101 62.2223C36.4992 62.7718 35.9404 62.6932 35.3585 62.7116C35.0214 62.7254 34.7997 63.1133 34.4719 63.2287C34.3518 63.2749 34.2687 63.4226 34.1163 63.418C34.0609 63.418 33.987 63.3995 33.9639 63.4411C33.7608 63.829 33.4976 64.0829 33.0866 64.0413L33.0819 64.0367L33.0912 64.0459C32.9758 64.5031 32.6571 64.4615 32.3061 64.3506L32.3107 64.3552C32.2553 64.2906 32.2276 64.1243 32.1399 64.1843C31.8443 64.3783 31.461 64.3274 31.1378 64.4382C31.0823 64.4567 31.0223 64.489 31.0038 64.5536C30.87 65.0293 30.5929 65.1493 30.1726 64.9507C30.1588 64.9368 30.1311 64.9368 30.1265 64.9414C30.0711 65.5141 29.5492 65.2508 29.3692 65.634C29.1845 66.0312 28.2146 65.5415 28.0298 64.9781C27.9975 64.8719 28.039 64.7472 28.0436 64.6317C28.1775 63.9067 28.4591 63.4034 28.8839 62.997C29.2487 62.6415 29.7983 62.8678 30.1077 62.5492C30.3939 62.2629 30.7172 62.0598 31.0451 61.9444C31.4699 61.7967 31.7377 61.2795 32.2965 61.4135C32.6013 61.4874 32.8599 61.2196 33.1416 61.0949C33.6957 60.8549 34.1528 60.3885 34.841 60.4394C35.1134 60.4625 35.4136 60.3841 35.5336 60.0054C35.9585 60.107 36.097 59.5714 36.4618 59.5114C37.0667 59.4052 37.5839 59.0266 38.2628 59.1422C38.3506 59.156 38.4568 59.096 38.4983 58.999C38.6183 58.722 38.8308 58.7035 39.0755 58.7636C39.3665 58.8329 39.6159 58.7775 39.7867 58.5235C39.916 58.3296 40.0453 58.1449 40.3224 58.3297C40.3686 58.3574 40.4471 58.3712 40.4563 58.3435C40.5763 57.7617 41.112 58.0203 41.366 57.7202L41.3614 57.7156L41.3568 57.7294Z" fill="currentColor"/>
<path d="M37.303 63.8985C37.9727 64.0233 38.3697 63.3122 39.1133 63.6032C39.3534 63.6956 39.6351 63.5433 39.7136 63.0953C39.7505 62.8829 40.3693 63.0862 40.5911 63.4095C40.8081 63.7189 40.7435 63.9868 40.7205 64.2408L40.7112 64.2315L40.7251 64.2361C40.776 65.2106 40.6699 65.8987 40.0649 65.9124C39.7324 65.9216 39.5616 66.388 39.1922 66.351C38.9243 66.3233 38.6934 66.4526 38.3886 66.3047C38.3655 66.2909 38.3147 66.2493 38.3147 66.2678C38.167 66.7111 37.7883 66.591 37.5251 66.7434C37.4281 66.8034 37.345 66.905 37.2295 66.9188C37.054 66.9372 36.9478 67.0434 36.8555 67.2466C36.7309 67.5191 36.5184 67.6299 36.1535 67.1265C36.0288 66.9556 35.8118 66.9694 35.7194 67.1633C35.5948 67.4358 35.4378 67.5928 35.1376 67.3295C35.1145 67.3064 35.0729 67.2926 35.0637 67.311C34.8005 67.8329 34.1493 67.3571 33.8861 67.7773C33.5768 68.2714 33.1242 68.1328 32.6531 68.0866C32.3807 68.0634 32.2144 68.4144 31.9605 68.4929C31.8681 68.5206 31.7989 68.6545 31.6834 68.6406C31.6418 68.636 31.5772 68.6083 31.5633 68.6498C31.4156 69.0008 31.2124 69.2224 30.8799 69.1393L30.8753 69.1346L30.8845 69.1439C30.8061 69.5826 30.5475 69.4994 30.2657 69.3562L30.2703 69.3608C30.2195 69.2916 30.1964 69.1299 30.1225 69.1761C29.8917 69.3331 29.5822 69.2361 29.3236 69.3099C29.2821 69.3238 29.2313 69.3468 29.222 69.4115C29.1297 69.8548 28.9127 69.9425 28.5663 69.707C28.5571 69.6977 28.5294 69.6885 28.5294 69.6977C28.5063 70.2473 28.0722 69.9332 27.9429 70.2841C27.8091 70.649 27.01 70.0716 26.8345 69.5082C26.8021 69.4019 26.8298 69.2819 26.8298 69.171C26.9082 68.4829 27.116 68.0258 27.4438 67.6702C27.7255 67.3608 28.1781 67.6472 28.4182 67.3702C28.6306 67.1208 28.8892 66.9638 29.1478 66.8807C29.4803 66.7792 29.6788 66.3128 30.136 66.5022C30.3854 66.6038 30.584 66.3683 30.8056 66.2852C31.2443 66.1144 31.5953 65.7081 32.1541 65.8328C32.3711 65.8837 32.6113 65.8375 32.6943 65.4866C33.0407 65.6298 33.133 65.131 33.4239 65.108C33.9088 65.0665 34.3106 64.7571 34.8648 64.9419C34.9387 64.9696 35.0218 64.9142 35.0495 64.8311C35.1326 64.5725 35.3035 64.5771 35.5067 64.6603C35.7422 64.7573 35.9408 64.7342 36.0701 64.5034C36.1624 64.3279 36.264 64.1616 36.4949 64.3741C36.5319 64.4111 36.5965 64.4295 36.6057 64.4018C36.6796 63.8477 37.1183 64.1571 37.3169 63.8939L37.3122 63.8893L37.303 63.8985Z" fill="currentColor"/>
</svg>
