<svg width="100%" height="100%" viewBox="0 0 47 36" fill="none" xmlns="http://www.w3.org/2000/svg">
<g id="Group 13">
<path id="Vector" d="M15.7355 2.76296C12.1028 7.45886 12.9101 14.0603 17.1079 13.3798C20.3371 12.9034 23.5662 5.213 21.9516 1.74211C20.8214 -0.912093 18.3189 -0.503754 15.7355 2.76296Z" fill="#EA4335"/>
<path id="Vector_2" d="M33.4346 2.71068C31.2767 4.36478 30.5985 11.988 32.2632 15.7996C33.5579 18.6763 35.3458 18.6044 36.9488 15.5839C38.6751 12.4195 38.3052 6.45038 36.2706 3.93327C34.7293 1.9915 34.4827 1.91959 33.4346 2.71068Z" fill="#EA4335"/>
<path id="Vector_3" d="M0.139471 10.4993C-0.764176 14.1626 2.85041 23.3543 7.3041 28.6161C8.65957 30.2813 11.3705 32.2795 13.9524 33.6116C18.0188 35.6764 18.6642 35.8096 25.0543 35.8096C31.1862 35.8096 32.2189 35.6098 35.8981 33.878C40.6099 31.6134 47 25.0194 47 22.3552C47 20.024 45.3863 20.4236 40.9327 24.0869C36.0271 28.0833 33.7035 29.3488 29.6371 30.1481C25.7643 30.8807 19.5033 29.9482 16.0824 28.1499C12.016 26.0185 6.01317 18.159 3.62496 11.8314C2.39859 8.63436 0.784933 7.9683 0.139471 10.4993Z" fill="#EA4335"/>
</g>
</svg>
