<svg width="100%" height="100%" viewBox="0 0 34 33" fill="none" xmlns="http://www.w3.org/2000/svg">
<g id="Group 14">
<path id="Vector" d="M17.5684 0.541952C17.4472 1.17798 17.5229 4.2067 17.6744 4.343C17.7349 4.40357 17.841 4.40357 17.9318 4.343C18.1135 4.23699 18.1741 0.693388 18.0075 0.269367C17.8561 -0.124367 17.6592 -0.0032177 17.5684 0.541952Z" fill="#EA4335"/>
<path id="Vector_2" d="M26.1097 3.16197C25.4888 3.81314 24.3076 5.67581 24.3076 5.96354C24.3076 6.62986 24.9285 5.96354 26.0643 4.07059C26.7003 3.04082 26.7155 2.49565 26.1097 3.16197Z" fill="#EA4335"/>
<path id="Vector_3" d="M9.01318 5.66068C9.01318 5.99384 11.9813 8.81055 12.3296 8.81055C12.8142 8.81055 12.5871 8.49253 10.9364 6.87217C9.61893 5.58496 9.01318 5.20637 9.01318 5.66068Z" fill="#EA4335"/>
<path id="Vector_4" d="M19.1284 8.50773C18.0987 9.59807 16.66 11.3699 15.9634 12.4451L15.7211 12.8085L12.7833 12.3239C9.20938 11.7333 7.271 11.5819 6.74097 11.8696C6.27152 12.1119 6.16551 12.7782 6.51382 13.2931C6.81669 13.7626 8.6945 15.2466 10.4512 16.4278C11.1932 16.9276 11.8747 17.3819 11.9504 17.4576C12.0261 17.5182 11.6475 18.0633 11.1023 18.6842C9.05794 20.9861 7.64959 23.0607 7.64959 23.7725C7.64959 23.9239 7.72531 24.1208 7.83131 24.2268C8.27047 24.666 9.2851 24.3631 13.1921 22.667C14.6156 22.0461 15.8877 21.5312 16.0391 21.5312C16.1754 21.5312 16.6146 21.8795 17.0083 22.3187C19.2496 24.772 21.5968 26.7709 22.4297 26.9224C23.5958 27.1344 23.6412 26.5589 22.778 23.1667C22.0663 20.4106 22.036 20.5923 23.4595 20.0926C24.5347 19.714 26.3822 18.7751 27.1545 18.2148C27.6391 17.8513 27.7906 17.6393 27.7906 17.3062C27.7906 16.7004 27.412 16.4884 25.1859 15.8524C21.718 14.8378 21.4757 14.7469 21.294 14.2926C21.188 14.0351 21.1425 12.7934 21.1577 10.8096C21.2031 7.91713 21.188 7.72026 20.9154 7.50826C20.7488 7.38711 20.5368 7.29624 20.4611 7.29624C20.3702 7.29624 19.7645 7.84141 19.1284 8.50773ZM20.3702 11.6727V14.6863L20.7639 15.1558C21.1577 15.6404 21.93 15.913 25.3525 16.867C26.0642 17.0639 26.6548 17.291 26.6851 17.3819C26.7154 17.4727 25.9431 17.9422 24.9587 18.4116C23.9744 18.8962 22.7932 19.4717 22.3389 19.6837C21.2183 20.244 21.1728 20.5015 21.7634 22.7276C22.4752 25.4534 22.5509 25.7714 22.4449 25.8623C22.2632 26.044 21.5514 25.4534 19.295 23.2576C18.0684 22.0764 16.8872 20.9861 16.6752 20.8346C16.0997 20.4712 15.6303 20.5923 12.541 21.8947C9.78484 23.0456 9.01251 23.3182 9.01251 23.1213C9.01251 22.8639 10.224 21.2284 11.6021 19.6383C12.5864 18.5025 13.1013 17.7908 13.1013 17.5485C13.1013 17.1093 12.6924 16.7307 10.6026 15.2769C9.69397 14.6257 8.60363 13.808 8.17961 13.4294L7.42243 12.7631L8.22504 12.7479C8.66421 12.7479 10.4966 12.9902 12.2835 13.2931C14.0705 13.596 15.6303 13.7928 15.7514 13.7474C15.8574 13.7171 16.9023 12.5511 18.0532 11.173C19.2042 9.77979 20.1885 8.65917 20.2491 8.65917C20.3248 8.65917 20.3702 10.0221 20.3702 11.6727Z" fill="#EA4335"/>
<path id="Vector_5" d="M28.3961 10.3399C26.2306 11.5514 25.9429 11.7786 26.3215 11.93C26.6849 12.0663 30.8191 9.74933 30.8191 9.41617C30.8191 9.08302 30.2134 9.32531 28.3961 10.3399Z" fill="#EA4335"/>
<path id="Vector_6" d="M0.0172574 10.2186C0.108119 10.476 3.04598 11.6875 3.53057 11.6875C4.25747 11.6875 3.74258 11.2938 2.18279 10.6729C0.547284 10.0066 -0.119035 9.87027 0.0172574 10.2186Z" fill="#EA4335"/>
<path id="Vector_7" d="M4.62105 18.2599C2.95525 18.8959 2.45551 19.1382 2.37979 19.3654C2.34951 19.4865 2.44037 19.5623 2.60695 19.5623C3.04611 19.5471 6.33228 18.1388 6.40799 17.9267C6.49886 17.639 5.99912 17.7147 4.62105 18.2599Z" fill="#EA4335"/>
<path id="Vector_8" d="M29.7291 18.1537C29.5777 18.184 29.4565 18.2749 29.4565 18.3506C29.4565 18.5929 30.456 18.7898 32.2278 18.8958C33.7573 18.9866 33.9996 18.9715 33.9996 18.7595C33.9996 18.5172 33.6059 18.4112 31.9552 18.2749C31.3798 18.2295 30.6983 18.1689 30.4409 18.1386C30.1986 18.1083 29.8654 18.1083 29.7291 18.1537Z" fill="#EA4335"/>
<path id="Vector_9" d="M26.7305 23.6358C26.7305 23.9387 30.0015 26.6797 30.3498 26.6797C30.4407 26.6797 30.5164 26.6191 30.5164 26.5585C30.5164 26.3768 29.3655 25.3016 28.1691 24.3476C27.1696 23.545 26.7305 23.333 26.7305 23.6358Z" fill="#EA4335"/>
<path id="Vector_10" d="M5.83289 26.0287C5.34829 26.3467 3.66735 27.7702 3.53106 27.967C3.37962 28.1639 3.37962 28.4971 3.53106 28.4971C3.77336 28.4971 6.43863 26.2104 6.43863 25.9984C6.43863 25.7106 6.28719 25.7106 5.83289 26.0287Z" fill="#EA4335"/>
<path id="Vector_11" d="M15.1916 29.0576C15.1461 31.3745 15.2824 32.2831 15.6307 31.9348C15.979 31.5714 15.8125 27.7401 15.4339 27.7401C15.2673 27.7401 15.2219 28.0429 15.1916 29.0576Z" fill="#EA4335"/>
<path id="Vector_12" d="M23.49 28.482C23.4294 28.5728 23.7626 29.436 24.2321 30.4203C25.0498 32.1316 25.4284 32.7373 25.701 32.7373C25.9736 32.7373 25.7918 32.1921 24.9741 30.5718C24.0958 28.8 23.6566 28.1942 23.49 28.482Z" fill="#EA4335"/>
</g>
</svg>
