<svg width="286" height="9" viewBox="0 0 286 9" fill="none" xmlns="http://www.w3.org/2000/svg">
<path d="M62.7129 9C51.4777 8.4603 39.6381 9.30664 28.2634 7.847C26.4192 7.60169 23.9862 7.44224 21.4602 7.39317C18.9343 7.30731 16.3153 7.3441 14.0992 7.57715C11.9762 7.87154 2.3681 6.20339 0.539465 5.33252C-1.21168 4.48617 1.68623 4.30216 3.73182 4.04458L3.79382 4.08137L3.65433 4.05685C9.14022 2.79347 15.5714 2.20471 26.2953 3.06332C32.2461 3.56622 38.3053 2.98972 44.6281 3.40676C49.2616 3.67661 54.1741 3.65209 58.6062 4.06913C58.9937 4.10593 59.5206 4.20405 59.722 4.17952C65.1614 3.49263 71.0967 3.81154 76.7996 3.60302C78.9226 3.51716 81.0767 3.32089 83.1378 3.32089C86.3302 3.32089 88.8871 3.10011 91.909 2.7076C95.8917 2.19243 100.355 1.94712 103.64 2.94066C104.756 3.2841 108.832 3.23504 111.637 2.83027C115.542 2.26604 119.307 1.93485 123.089 2.43775C123.399 2.47455 123.988 2.4991 124.297 2.46231C132.325 1.38291 140.972 2.29057 148.395 1.4565C157.073 0.499757 164.388 0.830938 172.477 1.07626C177.188 1.22345 182.38 0.646955 187.54 0.659221C189.431 0.659221 191.445 0.450692 193.522 0.573351C194.25 0.622414 195.196 0.708272 195.738 0.646943C200.666 0.131776 205.734 -0.089023 211.188 0.364814H211.297L211.173 0.352574C215.373 -0.309783 219.541 0.0704363 223.679 0.597869H223.617C224.02 0.745059 223.446 1.03945 225.105 1.02718C230.25 1.01492 235.193 1.50556 240.276 1.68955C241.113 1.71408 242.151 1.73861 242.756 1.65275C247.25 1.06399 251.775 1.18665 256.393 1.9962C256.563 2.02073 256.92 2.06978 256.982 2.05751C260.98 1.2357 266.683 2.26602 271.285 1.89805C276.027 1.51781 286.565 3.45581 285.976 4.5352C285.868 4.74372 284.597 4.87866 283.869 5.05039H283.931C277.949 5.98259 271.239 6.39962 263.134 6.53455C256.114 6.64494 249.853 5.6514 243.871 5.79859C238.401 5.93351 232.807 5.89674 227.677 5.74955C221.013 5.5533 214.551 6.14203 207.578 5.41835C203.796 5.03811 198.744 5.27116 194.281 5.27116C185.324 5.27116 176.491 5.82312 167.41 5.45514C163.799 5.30795 159.243 5.33251 155.57 6.0194H155.632C150.317 5.70049 145.497 6.7063 140.182 6.75536C131.271 6.85349 122.112 7.54037 113.326 7.20919C112.163 7.16013 110.397 7.2705 109.343 7.45449C106.197 7.98192 103.16 7.96968 100.06 7.82249C96.3721 7.65076 92.6839 7.6753 88.9491 8.12913C86.1132 8.48484 83.3083 8.77923 80.4723 8.32539C80.0229 8.2518 78.9226 8.2027 78.6902 8.25176C73.8552 9.33116 67.8734 8.55843 62.6664 8.9632H62.7129V9Z" fill="#EA4335"/>
</svg>
