<svg width="100%" height="100%" viewBox="0 0 24 36" fill="none" xmlns="http://www.w3.org/2000/svg">
<g id="Group 12">
<path id="Vector" d="M16.2481 0.0309334C16.0242 0.0806808 15.7755 0.30455 15.7009 0.528416C15.6014 0.752285 15.278 3.33921 14.9546 6.29925C14.6313 9.25928 14.2333 11.9706 14.084 12.3437C13.8602 12.9407 13.7856 12.9904 12.8901 12.7666C9.40769 11.9706 5.15419 13.2392 2.76626 15.7763C-4.02441 23.0396 2.54239 35.4021 13.1886 35.427C16.4222 35.427 19.2579 34.2082 21.3971 31.8949C26.1232 26.7956 24.183 18.1643 17.4421 14.2341C16.472 13.662 15.6511 13.1645 15.6014 13.1645C15.5765 13.1397 15.7506 12.1696 15.9994 11.0502L16.4471 8.96079L17.7157 8.68717C19.1335 8.36381 21.4966 7.24447 22.2677 6.52311C23.0388 5.80176 22.8895 4.90629 21.8448 3.91132C18.1883 0.528416 17.1933 -0.168064 16.2481 0.0309334ZM19.3574 3.7372C20.2777 4.48342 21.024 5.20478 21.024 5.32915C21.024 5.42865 20.8747 5.65251 20.6757 5.80176C20.2031 6.19975 16.9695 7.56783 16.7953 7.44346C16.6461 7.34396 16.9695 3.21484 17.1685 2.64273C17.3426 2.14524 17.5913 2.26962 19.3574 3.7372ZM13.3627 14.0103C13.4622 14.1098 13.4373 14.6072 13.2881 15.1296C13.1139 15.7515 13.1139 16.1743 13.2632 16.3236C13.5119 16.5723 13.8104 16.3236 14.6313 15.1794C14.9795 14.7067 15.0044 14.7067 16.1984 15.2789C17.8152 16.05 20.5016 18.7861 21.3225 20.5024C24.183 26.4723 21.1235 32.666 14.7308 33.7356C12.8403 34.0589 9.97979 33.5614 7.86548 32.5167C4.90545 31.074 2.06978 27.1439 1.64692 23.9351C1.14943 20.005 3.214 16.2241 6.74614 14.6072C8.58683 13.7864 12.716 13.3884 13.3627 14.0103Z" fill="#EA4335"/>
<path id="Vector_2" d="M8.51246 16.6966C8.21397 16.9951 8.33834 17.8906 8.73633 18.4627C9.25868 19.2338 10.2288 19.582 10.8506 19.2587C11.3481 18.985 11.5222 18.2637 11.0745 18.2637C10.9501 18.2637 10.4029 17.8657 9.85567 17.3931C8.83582 16.4727 8.7612 16.423 8.51246 16.6966Z" fill="#EA4335"/>
<path id="Vector_3" d="M17.6911 21.5471C17.1687 22.2684 17.1936 22.8654 17.716 23.7609C18.2134 24.5817 18.9597 24.8802 19.9049 24.6315C20.7257 24.4076 20.7009 23.8604 19.8054 23.5121C19.0094 23.1639 18.4622 22.3182 18.5866 21.6217C18.7109 20.9501 18.1388 20.9003 17.6911 21.5471Z" fill="#EA4335"/>
<path id="Vector_4" d="M4.70711 23.8605C4.28425 24.9053 5.27922 26.0743 7.07016 26.6713C8.61237 27.2186 8.83624 26.3728 7.36865 25.3779C6.8463 25.0048 6.14982 24.4326 5.85133 24.1093C5.17972 23.3879 4.9061 23.3382 4.70711 23.8605Z" fill="#EA4335"/>
<path id="Vector_5" d="M11.3731 24.0349C10.9005 24.5076 11.0249 25.4528 11.6965 26.0995C12.3681 26.796 13.3382 26.9204 13.7859 26.3731C14.0098 26.0995 13.9352 25.9254 13.3133 25.4777C12.9153 25.1792 12.4925 24.6817 12.4179 24.3334C12.2437 23.6867 11.8457 23.5623 11.3731 24.0349Z" fill="#EA4335"/>
</g>
</svg>
